Coordinates
version=1
nRows=8
nColumns=40
inDegrees=yes

Units are S.I. units (second, meters, Newtons, ...)
Angles are in degrees.

endheader
time	pelvis_tilt	pelvis_list	pelvis_rotation	pelvis_tx	pelvis_ty	pelvis_tz	hip_flexion_r	hip_adduction_r	hip_rotation_r	knee_angle_r	knee_angle_r_beta	ankle_angle_r	subtalar_angle_r	mtp_angle_r	hip_flexion_l	hip_adduction_l	hip_rotation_l	knee_angle_l	knee_angle_l_beta	ankle_angle_l	subtalar_angle_l	mtp_angle_l	lumbar_extension	lumbar_bending	lumbar_rotation	arm_flex_r	arm_add_r	arm_rot_r	elbow_flex_r	pro_sup_r	wrist_flex_r	wrist_dev_r	arm_flex_l	arm_add_l	arm_rot_l	elbow_flex_l	pro_sup_l	wrist_flex_l	wrist_dev_l
     18.28000000	     -5.31327343	     -3.25077119	     -3.78995412	      0.77053637	      0.92570374	      0.43484611	     28.43046407	     -2.31455664	    -12.79356591	     18.01500192	     18.01500192	      3.75116808	      1.05248509	      5.15686642	      2.74429485	     -3.12574456	    -11.63499871	     12.36591100	     12.36591100	     15.59119253	     -5.14331750	     -6.57063042	     -9.62628695	      5.29328732	      1.35718601	    -14.38060529	    -12.88389582	     -6.15165335	     24.78453896	     46.88514184	      0.00000000	      0.00000000	     17.72191963	    -17.53661216	    -14.82204135	     75.05082191	     47.57504539	      0.00000000	      0.00000000
     18.29357143	     -5.20307906	     -3.17578955	     -3.88712213	      0.77204360	      0.92441236	      0.43715925	     27.98804688	     -2.07098685	    -13.12447923	     16.82276223	     16.82276223	      3.64721146	      1.76509340	      5.70046545	      1.79026590	     -3.09789866	    -11.75176632	     11.95257495	     11.95257495	     15.96490816	     -5.01164894	     -6.74355184	     -9.51066201	      5.23880855	      1.40122489	    -15.28017486	    -12.62694630	     -6.43286601	     24.57469489	     46.90440215	      0.00000000	      0.00000000	     17.73602175	    -17.56428504	    -14.99273520	     75.37221050	     47.59830931	      0.00000000	      0.00000000
     18.30714286	     -5.07194812	     -3.08278387	     -3.97098457	      0.77381451	      0.92304494	      0.43954284	     27.66866321	     -1.94996612	    -13.48248041	     16.39029770	     16.39029770	      3.60520363	      2.41837389	      5.85440738	      0.78226330	     -3.05370912	    -11.90875983	     11.51115951	     11.51115951	     16.37693514	     -4.71775678	     -6.86464017	     -9.38376956	      5.18263107	      1.46295726	    -16.06509336	    -12.36429423	     -6.77803668	     24.49502890	     46.92351991	      0.00000000	      0.00000000	     17.60719231	    -17.48558974	    -15.22466231	     75.80589795	     47.62760717	      0.00000000	      0.00000000
     18.32071429	     -4.99999660	     -3.06572285	     -4.00535562	      0.77566806	      0.92149042	      0.44205762	     27.51751235	     -1.79267747	    -13.62469040	     16.56034780	     16.56034780	      3.53927788	      2.47734647	      5.73042160	     -0.01125642	     -3.13281038	    -11.93567931	     11.37111826	     11.37111826	     16.86730136	     -4.66497689	     -6.93995273	     -9.15998362	      5.24378352	      1.44824375	    -16.63392726	    -12.13137826	     -6.89079715	     24.36888670	     46.93046624	      0.00000000	      0.00000000	     17.33987605	    -17.46790872	    -15.36505212	     75.93051230	     47.64011108	      0.00000000	      0.00000000
     18.33428571	     -4.82046671	     -3.02594685	     -4.05478125	      0.77783830	      0.92004262	      0.44474208	     27.18308529	     -1.65576552	    -13.59783769	     16.88273593	     16.88273593	      2.70427832	      2.18414223	      2.94953277	     -0.93209411	     -3.22117827	    -12.19481809	     11.31358804	     11.31358804	     17.94157329	     -3.96954140	     -5.78942095	     -9.07667334	      5.22160598	      1.27248634	    -16.93326860	    -11.82307523	     -8.30321230	     24.66501671	     47.00344819	      0.00000000	      0.00000000	     16.69989254	    -17.19680707	    -16.26470165	     76.87792489	     47.74653779	      0.00000000	      0.00000000
     18.34785714	     -4.70148280	     -3.17826712	     -4.04414253	      0.78000528	      0.91865825	      0.44752673	     26.94078922	     -1.37863587	    -13.57642061	     17.61153538	     17.61153538	      2.78935956	      1.92302323	      2.68240887	     -1.70391546	     -3.52171318	    -12.10563006	     11.35552473	     11.35552473	     18.43691111	     -4.06956733	     -5.84644633	     -8.89255365	      5.47500607	      1.31401146	    -17.12015917	    -11.59965046	     -8.30271026	     24.56378136	     47.00427551	      0.00000000	      0.00000000	     16.28568419	    -17.00625313	    -16.24506881	     76.76695463	     47.74157835	      0.00000000	      0.00000000
     18.36142857	     -4.48903158	     -3.15020684	     -4.06972039	      0.78225584	      0.91728463	      0.45046482	     26.78525397	     -1.20317901	    -12.83924342	     18.72441273	     18.72441273	      1.99113456	      0.24672634	     -0.60277452	     -2.42066678	     -3.67618518	    -12.17844273	     11.79145638	     11.79145638	     19.86479895	     -3.63296337	     -3.74780392	     -8.84047278	      5.48876633	      1.25052751	    -16.79780175	    -11.41296814	     -8.68731904	     24.12441753	     47.03067584	      0.00000000	      0.00000000	     15.75235021	    -16.73873007	    -16.78308196	     77.00732220	     47.80354658	      0.00000000	      0.00000000
     18.37500000	     -4.29078795	     -3.38488129	     -4.03002144	      0.78463921	      0.91627035	      0.45342561	     26.45937992	     -0.87760199	    -12.72928966	     19.78629253	     19.78629253	      2.34819836	     -0.13902832	     -0.98474013	     -3.16993463	     -4.10653042	    -12.06305380	     12.05665791	     12.05665791	     20.25341707	     -3.84837914	     -3.77520453	     -8.72518235	      5.85550233	      1.34172117	    -16.64579784	    -11.23167007	     -8.66819930	     24.15648052	     47.02759635	      0.00000000	      0.00000000	     15.12953669	    -16.33054586	    -16.67937936	     76.78592300	     47.78908140	      0.00000000	      0.00000000
